# xmcd CD database file
#
# Track frame offsets:
#	183
#	22385
#	58983
#	89875
#	115883
#	151823
#
# Disc length: 2418 seconds
#
# Revision: 1
# Processed by: cddbd v1.5.2PL0 Copyright (c) Steve Scherf et al.
# Submitted via: CDex 1.51
#
DISCID=54097006
DTITLE=Lucio Dalla and Marco di Marco - Blues for Love
DYEAR=1994
DGENRE=Italo
TTITLE0=Camparenda
TTITLE1=Stella by Starlight
TTITLE2=Blues for Love
TTITLE3=It Might As Well Be Spring
TTITLE4=Express
TTITLE5=Cervia's Kites
EXTD=YEAR: 1994
EXTT0=
EXTT1=
EXTT2=
EXTT3=
EXTT4=
EXTT5=
PLAYORDER=
